<?xml version="1.0" encoding="UTF-8" standalone="no"?>
<!-- Created with Inkscape (http://www.inkscape.org/) -->

<svg
   version="1.1"
   id="svg1"
   width="67.285965"
   height="196.94525"
   viewBox="0 0 67.285965 196.94525"
   sodipodi:docname="filterOn.svg"
   inkscape:version="1.3.2 (091e20e, 2023-11-25)"
   inkscape:export-filename="../assets/filterOn.png"
   inkscape:export-xdpi="48.744511"
   inkscape:export-ydpi="48.744511"
   xmlns:inkscape="http://www.inkscape.org/namespaces/inkscape"
   xmlns:sodipodi="http://sodipodi.sourceforge.net/DTD/sodipodi-0.dtd"
   xmlns="http://www.w3.org/2000/svg"
   xmlns:svg="http://www.w3.org/2000/svg">
  <defs
     id="defs1" />
  <sodipodi:namedview
     id="namedview1"
     pagecolor="#ffffff"
     bordercolor="#000000"
     borderopacity="0.25"
     inkscape:showpageshadow="2"
     inkscape:pageopacity="0.0"
     inkscape:pagecheckerboard="0"
     inkscape:deskcolor="#d1d1d1"
     inkscape:zoom="3.5436241"
     inkscape:cx="33.863637"
     inkscape:cy="98.204548"
     inkscape:window-width="1512"
     inkscape:window-height="945"
     inkscape:window-x="0"
     inkscape:window-y="37"
     inkscape:window-maximized="0"
     inkscape:current-layer="g1" />
  <g
     inkscape:groupmode="layer"
     inkscape:label="Image"
     id="g1"
     transform="translate(-0.61663223,-1.0547842)">
    <path
       style="fill:#000000"
       d="m 14.392595,195.94885 c -0.949261,-1.12813 -1.725929,-2.47813 -1.725929,-3 C 12.666666,192.19816 11.408423,192 6.6416492,192 H 0.61663223 l 0.19168386,-6.16666 0.19168387,-6.16667 32.59065004,-0.17306 c 24.024407,-0.12758 32.836318,0.0308 33.525302,0.60263 0.693056,0.57518 0.88503,2.17084 0.742682,6.17306 l -0.19197,5.39737 -5.762778,0.19159 c -5.705807,0.1897 -5.770974,0.21139 -6.591877,2.19322 -1.270536,3.06735 -2.890586,3.91372 -5.98692,3.12779 -1.804596,-0.45806 -3.259303,-0.43356 -4.731554,0.0797 -1.282075,0.44693 -7.354925,0.74107 -15.300423,0.74107 H 16.118524 Z M 6.0707991,174.71043 C 5.5297605,174.37605 5.3737036,153.76932 5.4971248,98.958881 L 5.6666665,23.666667 H 34.333332 62.999998 l 0.169506,75.427017 0.169507,75.427016 -1.762518,0.44237 C 59.26127,175.54415 7.0351656,175.30644 6.0707991,174.71043 Z M 27.964945,163.5 c 0.995122,-3.58326 0.986717,-3.60935 -2.156847,-6.69452 -3.117479,-3.05958 -3.666886,-3.19474 -8.131865,-2.00054 l -3.009567,0.80494 V 160.80494 166 h 6.301997 6.301997 z m 21.368387,1.97214 c 0,-0.29032 -1.30726,-1.81084 -2.905021,-3.37892 l -2.905021,-2.85106 -3.856447,1.00706 c -4.352957,1.13671 -4.658339,1.36414 -5.26014,3.91745 L 33.974596,166 h 7.679368 c 4.223652,0 7.679368,-0.23753 7.679368,-0.52786 z m 4.453566,-19.90746 c -0.142994,-0.14299 -0.960587,-8.2e-4 -1.816875,0.31594 -1.175043,0.43468 -1.824771,1.54187 -2.64913,4.51433 l -1.092243,3.93839 2.719007,2.86416 2.719008,2.86416 0.19011,-7.1185 c 0.104561,-3.91517 0.07312,-7.23549 -0.06988,-7.37848 z m -15.772796,8.65823 c 3.696523,-1.02772 4.04057,-1.28838 4.619665,-3.5 1.686139,-6.43951 1.774245,-5.92953 -1.619697,-9.37529 l -3.158632,-3.20685 -3.761053,1.03729 c -2.068579,0.57051 -4.087521,1.2853 -4.486537,1.58841 -0.399016,0.30311 -1.103345,2.23958 -1.565176,4.30325 l -0.839692,3.75214 3.206782,3.25574 c 1.763729,1.79066 3.297588,3.25574 3.408574,3.25574 0.110987,0 1.999081,-0.49969 4.195766,-1.11043 z m -19.354954,-6.29942 c 2.254328,-0.67541 2.550128,-1.04478 3.244013,-4.05086 1.118763,-4.84674 1.027496,-5.21984 -2.041967,-8.34739 -4.678936,-4.76749 -5.194528,-4.25717 -5.194528,5.14143 0,8.68292 -0.108594,8.48553 3.992482,7.25682 z m 33.241368,-8.65537 2.099482,-0.73188 v -7.60145 c 0,-8.61868 0.09609,-8.50746 -5.820619,-6.73738 -3.611759,1.08051 -3.885042,1.40883 -4.7944,5.75986 l -0.757395,3.62392 3.161146,3.20941 c 3.538489,3.59251 3.249444,3.47534 6.111786,2.47752 z m -19.567184,-6.15375 c 3.731245,-0.96257 4.742201,-2.31495 5.391272,-7.212 0.366072,-2.76192 0.239887,-3.04323 -2.607588,-5.81329 l -2.992276,-2.91093 -3.56237,0.86965 c -4.543052,1.10906 -4.846944,1.35809 -5.830313,4.77762 -0.449389,1.56269 -0.957122,3.33147 -1.128296,3.93064 -0.315082,1.10289 5.396214,7.23311 6.729571,7.22319 0.366667,-0.003 2.166667,-0.39193 4,-0.86488 z m -16.2547,-16.66536 -1.411966,-1.41197 0.07036,5.64815 0.07036,5.64815 1.341608,-4.23619 1.341609,-4.23618 z m 33.656678,0.56486 c 1.656836,-0.69194 2.220872,-1.46847 2.833333,-3.90077 1.163462,-4.62053 0.994116,-5.27699 -2.159811,-8.37233 l -2.924499,-2.87018 -3.750045,0.83922 c -4.438031,0.99319 -5.011567,1.57255 -6.084563,6.1464 l -0.815712,3.47713 3.082993,3.20369 c 2.836438,2.94748 3.269595,3.16918 5.416326,2.77222 1.283333,-0.2373 3.264223,-0.82023 4.401978,-1.29538 z m -22.685859,-5.09586 c 3.472314,-0.87434 3.393183,-0.77776 4.677691,-5.70932 l 0.991682,-3.80732 -3.192746,-3.181553 -3.192746,-3.181551 -4.159986,1.120614 -4.159985,1.120613 -1.006681,3.462857 c -1.383685,4.75971 -1.365407,4.84167 1.798791,8.06575 3.021606,3.07879 3.703302,3.25326 8.24398,2.10991 z m 26.880645,-16.751341 -0.0699,-3.5 -0.843011,2.666667 c -0.56456,1.785853 -0.62461,2.941921 -0.181801,3.5 1.052105,1.325984 1.16878,1.041769 1.094715,-2.666667 z m -8.391566,0.207942 c 0.296193,-0.285086 0.993401,-2.260221 1.549351,-4.389187 L 48.0987,87.114577 44.832044,83.84792 41.565387,80.581264 37.428585,81.790633 c -4.092243,1.196342 -4.147351,1.244783 -5.116028,4.497037 -1.393639,4.679029 -1.316762,4.99051 2.083827,8.443013 l 3.063051,3.109813 3.770282,-0.973772 c 2.073655,-0.535575 4.012621,-1.207026 4.308813,-1.492113 z M 20.68396,90.888692 c 3.960969,-1.101247 4.006152,-1.141581 4.989934,-4.454334 1.415589,-4.766805 1.321621,-5.167338 -1.970257,-8.398071 -2.893608,-2.839862 -3.030276,-2.893838 -5.833333,-2.303811 l -2.870305,0.604182 -0.190754,6.901006 c -0.124835,4.516211 0.07616,7.222619 0.58163,7.831673 0.944524,1.138082 0.494665,1.153435 5.293085,-0.180645 z M 53.999998,74.219797 v -7.701516 l -2.498472,0.468716 c -2.944398,0.552372 -3.22001,0.910583 -4.264384,5.54239 l -0.795802,3.529384 3.224774,3.274005 c 1.773626,1.800702 3.474324,3.119774 3.779329,2.931271 0.305005,-0.188504 0.554555,-3.808416 0.554555,-8.04425 z M 37.97611,75.015754 c 2.177165,-0.753289 2.430333,-1.131379 3.314355,-4.949766 l 0.957132,-4.134177 -3.089704,-3.089704 -3.089704,-3.089704 -4.183902,0.966575 -4.183902,0.966575 -1.26088,4.222458 -1.260879,4.222457 3.236667,3.286079 c 3.497789,3.551188 3.781856,3.598703 9.560817,1.599207 z m -19.142602,-6.6184 c 0.275096,-0.401877 0.817952,-1.930686 1.206347,-3.397352 0.388394,-1.466667 0.838309,-3.127951 0.99981,-3.691742 0.172628,-0.602635 -1.080045,-2.378104 -3.03968,-4.308273 l -3.333319,-3.283196 v 8.154306 8.154307 l 1.833333,-0.448682 c 1.008334,-0.246776 2.058413,-0.777491 2.333509,-1.179368 z m 33.66649,-8.465787 c 1.408613,-0.530794 1.5,-0.945799 1.5,-6.81174 0,-5.417023 -0.178529,-6.408075 -1.344423,-7.463195 -1.249613,-1.130884 -1.636288,-1.149258 -5.48314,-0.260549 l -4.138717,0.956137 -1.26088,4.222457 -1.260879,4.222457 3.236667,3.286079 c 3.406809,3.458819 4.092963,3.60374 8.751372,1.848354 z M 31.066079,54.35094 c 3.302206,-0.98065 3.310084,-0.989827 4.435202,-5.166667 l 1.12712,-4.184272 -3.291193,-3.302389 -3.291193,-3.302388 -4.101063,1.311826 -4.101064,1.311827 -1.207706,3.903314 -1.207706,3.903314 3.043656,3.253915 c 3.349696,3.581096 3.791182,3.697788 8.593947,2.27152 z M 15.108187,39.166668 c -0.184942,-0.458334 -0.336258,-0.08333 -0.336258,0.833333 0,0.916667 0.151316,1.291667 0.336258,0.833333 0.184941,-0.458333 0.184941,-1.208333 0,-1.666666 z m 31.211698,-0.09978 c 2.551623,-0.671954 3.423326,-1.243677 3.76688,-2.470578 1.120643,-4.002051 1.251228,-3.92964 -7.086767,-3.92964 -5.561205,0 -7.666666,0.221924 -7.666666,0.808099 0,1.199677 5.447569,6.529911 6.638805,6.495812 0.565324,-0.01618 2.52181,-0.422844 4.347748,-0.903693 z M 23.633332,33.258404 c 0.37678,-0.352033 -0.365877,-0.591736 -1.833333,-0.591736 -2.330252,0 -3.032818,0.544959 -2.014889,1.562888 0.515355,0.515356 2.901811,-0.0869 3.848222,-0.971152 z M 1.1172676,18.895046 C 0.86943706,18.647215 0.66666664,15.794445 0.66666664,12.555556 V 6.6666668 l 5.83333316,-0.014428 5.8333332,-0.014428 1,-2.1491998 c 0.55,-1.1820598 1.635183,-2.4583802 2.411517,-2.8362676 1.923131,-0.93609983 35.609959,-0.7112161 37.405462,0.2497083 0.733417,0.3925129 1.706381,1.613908 2.162141,2.7142115 0.82036,1.9805246 0.886346,2.0024697 6.591433,2.1921446 l 5.762778,0.1915929 V 13 19 L 34.617266,19.172824 C 16.440098,19.267876 1.3650981,19.142876 1.1172676,18.895046 Z"
       id="path1" />
  </g>
</svg>
