<?xml version="1.0" encoding="UTF-8" standalone="no"?>
<!-- Created with Inkscape (http://www.inkscape.org/) -->

<svg
   version="1.1"
   id="svg1"
   width="203.71608"
   height="338.57501"
   viewBox="0 0 203.71608 338.57501"
   sodipodi:docname="LightOff.svg"
   inkscape:version="1.3.2 (091e20e, 2023-11-25)"
   inkscape:export-filename="../assets/LightOff.png"
   inkscape:export-xdpi="28.354134"
   inkscape:export-ydpi="28.354134"
   xmlns:inkscape="http://www.inkscape.org/namespaces/inkscape"
   xmlns:sodipodi="http://sodipodi.sourceforge.net/DTD/sodipodi-0.dtd"
   xmlns="http://www.w3.org/2000/svg"
   xmlns:svg="http://www.w3.org/2000/svg">
  <defs
     id="defs1" />
  <sodipodi:namedview
     id="namedview1"
     pagecolor="#ffffff"
     bordercolor="#000000"
     borderopacity="0.25"
     inkscape:showpageshadow="2"
     inkscape:pageopacity="0.0"
     inkscape:pagecheckerboard="0"
     inkscape:deskcolor="#d1d1d1"
     inkscape:zoom="1.6266667"
     inkscape:cx="224.38524"
     inkscape:cy="224.38524"
     inkscape:window-width="1512"
     inkscape:window-height="917"
     inkscape:window-x="0"
     inkscape:window-y="65"
     inkscape:window-maximized="0"
     inkscape:current-layer="g1" />
  <g
     inkscape:groupmode="layer"
     inkscape:label="Image"
     id="g1"
     transform="translate(-1.0373889,-0.65252997)">
    <path
       style="fill:#000000"
       d="m 77.469267,338.6602 c -4.65089,-1.41126 -6.62774,-4.01572 -6.62774,-8.73188 0,-3.27311 1.47591,-6.0389 4.02656,-7.54561 1.6214,-0.95778 4.92181,-1.09036 27.144383,-1.09036 25.18418,0 25.30869,0.007 27.54013,1.5106 6.01679,4.05472 4.41185,13.85557 -2.58725,15.79951 -2.87018,0.79717 -46.890033,0.84852 -49.496083,0.0577 z m -18.96107,-27.02878 c -1.46667,-0.52561 -3.18419,-1.59092 -3.81673,-2.36737 -1.41782,-1.74041 -2.55965,-5.68488 -2.08077,-7.18809 1.18032,-3.70513 1.94834,-4.9123 3.88796,-6.11104 2.11192,-1.30524 3.26474,-1.33917 45.421563,-1.33674 41.72468,0.002 43.33014,0.0485 45.38895,1.30385 5.58202,3.40356 5.45541,11.42496 -0.23924,15.15743 -1.7136,1.12316 -4.62135,1.21266 -43.86516,1.35025 -35.081923,0.123 -42.470733,-0.0106 -44.696573,-0.80829 z m -0.95261,-24.17344 c -3.31911,-1.69245 -4.93628,-4.23281 -4.93628,-7.75421 0,-3.4639 1.40534,-5.93281 4.42511,-7.77409 2.05333,-1.25199 3.68415,-1.2991 45.051763,-1.3015 41.87188,-0.002 42.97447,0.0304 45.09569,1.34135 4.43752,2.74253 5.57466,9.50991 2.20431,13.11836 -3.41486,3.65611 -1.83179,3.53788 -47.35487,3.53676 -38.858693,-9.5e-4 -42.380763,-0.0933 -44.485723,-1.16667 z m 0.28594,-23.46831 c -0.73333,-0.30333 -2.01549,-1.28627 -2.84925,-2.18433 -4.40549,-4.74521 -2.66357,-12.17394 3.39265,-14.46858 1.25677,-0.47617 15.68179,-0.71073 43.666673,-0.71004 46.58755,0.001 44.75534,-0.17454 47.94331,4.59756 2.64422,3.95815 1.42291,9.5902 -2.61326,12.05098 -2.15505,1.3139 -3.21483,1.34451 -45.20678,1.30568 -23.650003,-0.0219 -43.600003,-0.28794 -44.333343,-0.59127 z m -5.46763,-22.67033 c -2.76641,-1.68678 -4.19903,-4.53681 -4.19903,-8.35349 0,-5.15676 -1.33583,-15.69071 -2.79072,-22.00683 C 41.529307,194.224 35.447557,182.11466 22.053457,164.5054 -16.799263,113.42561 0.0829067,40.141176 57.327987,11.380856 81.355117,-0.6905436 109.84499,-2.6745536 135.54041,5.9342064 187.73205,23.420016 216.73005,80.689136 200.02772,133.29235 c -3.88698,12.24186 -8.59148,20.92276 -18.69816,34.50245 -13.68972,18.39397 -20.06868,36.70826 -21.50845,61.75174 -0.44236,7.69448 -0.51592,7.98692 -2.57371,10.23235 -3.76394,4.10718 -10.07118,3.66097 -13.7568,-0.97322 -1.4194,-1.7847 -1.45659,-2.22683 -1.10868,-13.17998 0.836,-26.32032 9.12803,-48.29112 27.42523,-72.66667 13.42209,-17.88092 19.3327,-40.81498 16.06467,-62.333334 -4.48841,-29.55396 -22.96425,-53.60096 -50.19279,-65.32778 -17.81307,-7.67176 -39.136133,-8.76814 -57.528533,-2.95798 -25.53366,8.06608 -46.6399,28.60366 -54.79097,53.31476 -3.18978,9.67024 -4.14452,15.82462 -4.13237,26.637664 0.0127,11.3075 1.12264,18.27677 4.38231,27.51659 3.69321,10.46876 7.28737,16.72643 16.61592,28.92947 14.98622,19.60405 23.25406,41.17381 25.39612,66.25532 0.78182,9.15444 0.76618,9.43803 -0.68609,12.43802 -2.38639,4.92963 -8.00214,6.66761 -12.56152,3.88759 z"
       id="path1" />
  </g>
</svg>
