<?xml version="1.0" encoding="UTF-8" standalone="no"?>
<!-- Created with Inkscape (http://www.inkscape.org/) -->

<svg
   version="1.1"
   id="svg1"
   width="64"
   height="64"
   viewBox="0 0 64 64"
   sodipodi:docname="pumpOff.svg"
   inkscape:export-filename="../assets/pumpOff.png"
   inkscape:export-xdpi="150"
   inkscape:export-ydpi="150"
   inkscape:version="1.3.2 (091e20e, 2023-11-25)"
   xmlns:inkscape="http://www.inkscape.org/namespaces/inkscape"
   xmlns:sodipodi="http://sodipodi.sourceforge.net/DTD/sodipodi-0.dtd"
   xmlns="http://www.w3.org/2000/svg"
   xmlns:svg="http://www.w3.org/2000/svg">
  <defs
     id="defs1" />
  <sodipodi:namedview
     id="namedview1"
     pagecolor="#ffffff"
     bordercolor="#000000"
     borderopacity="0.25"
     inkscape:showpageshadow="2"
     inkscape:pageopacity="0.0"
     inkscape:pagecheckerboard="0"
     inkscape:deskcolor="#d1d1d1"
     inkscape:zoom="11"
     inkscape:cx="32"
     inkscape:cy="31.954545"
     inkscape:window-width="1512"
     inkscape:window-height="916"
     inkscape:window-x="0"
     inkscape:window-y="38"
     inkscape:window-maximized="0"
     inkscape:current-layer="g1" />
  <g
     inkscape:groupmode="layer"
     inkscape:label="Image"
     id="g1">
    <path
       style="fill:#000000"
       d="M 13.18833,53.092547 C 7.6145873,52.382371 3.2,48.166353 3.2,43.553495 c 0,-2.700996 0.3071233,-2.928415 3.6373646,-2.693396 5.0652324,0.357458 11.4577724,-1.15584 15.9395834,-3.773359 1.227913,-0.717139 2.268704,-1.255031 2.312869,-1.195315 1.536749,2.07787 2.116251,2.621034 3.539076,3.317157 1.242732,0.608012 2.20153,0.826858 3.653009,0.8338 l 1.968022,0.0094 -1.002718,1.881293 c -0.551496,1.03471 -1.78097,2.741287 -2.732165,3.792392 -4.960352,5.481367 -11.224112,8.144627 -17.326711,7.367067 z M 52.324215,50.204871 C 51.696221,48.95355 50.758679,47.313875 50.240789,46.561147 47.923355,43.192872 43.850204,39.504681 40.503342,37.744002 39.507102,37.219912 39.063577,36.800871 39.165486,36.48 c 0.08385,-0.264 0.371593,-1.056 0.639436,-1.76 0.267843,-0.704 0.493307,-1.866348 0.501032,-2.582996 0.01632,-1.514309 -0.788061,-4.0876 -1.44928,-4.636363 C 38.018513,26.80503 38.384389,26.56 40.261229,26.56 c 5.51668,0 11.895681,2.554341 15.580056,6.238715 5.036351,5.036352 6.258129,11.918801 2.970162,16.731344 C 57.694046,51.165581 55.737048,52.48 54.419371,52.48 c -0.861339,0 -1.063545,-0.219575 -2.095156,-2.275129 z M 29.899613,37.627988 c -1.334025,-0.580972 -3.285059,-2.931777 -3.533849,-4.257942 -0.694574,-3.702395 2.078948,-7.165027 5.765625,-7.198155 3.504763,-0.03149 6.086216,2.525368 6.054086,5.996412 -0.03163,3.417406 -2.573735,5.930903 -5.966307,5.899172 -0.736542,-0.0069 -1.780342,-0.204658 -2.319555,-0.439487 z M 23.894151,29.499837 C 23.038826,28.554712 21.482532,24.909028 20.807325,22.268812 19.994547,19.090667 19.930262,14.017835 20.670832,11.49808 21.978111,7.0501255 24.834212,3.3686932 28.34287,1.6090427 31.451022,0.05025245 36.2279,0.42853028 38.059822,2.3785217 l 0.716253,0.7624157 -0.656771,1.3895313 C 37.758079,5.2947109 36.934009,6.856 36.288037,8 34.13808,11.807515 32.64,17.446336 32.64,21.731325 v 2.140626 l -1.908441,0.394182 c -2.481329,0.51251 -4.390502,1.944082 -5.495698,4.120888 -0.783238,1.542671 -0.880038,1.622957 -1.34171,1.112816 z"
       id="path1" />
  </g>
</svg>
