<?xml version="1.0" encoding="UTF-8" standalone="no"?>
<!-- Created with Inkscape (http://www.inkscape.org/) -->

<svg
   version="1.1"
   id="svg1"
   width="64"
   height="64"
   viewBox="0 0 64 64"
   sodipodi:docname="pumpHigh.svg"
   inkscape:export-filename="../assets/pumpHigh.png"
   inkscape:export-xdpi="150"
   inkscape:export-ydpi="150"
   inkscape:version="1.3.2 (091e20e, 2023-11-25)"
   xmlns:inkscape="http://www.inkscape.org/namespaces/inkscape"
   xmlns:sodipodi="http://sodipodi.sourceforge.net/DTD/sodipodi-0.dtd"
   xmlns="http://www.w3.org/2000/svg"
   xmlns:svg="http://www.w3.org/2000/svg">
  <defs
     id="defs1" />
  <sodipodi:namedview
     id="namedview1"
     pagecolor="#ffffff"
     bordercolor="#000000"
     borderopacity="0.25"
     inkscape:showpageshadow="2"
     inkscape:pageopacity="0.0"
     inkscape:pagecheckerboard="0"
     inkscape:deskcolor="#d1d1d1"
     inkscape:zoom="11"
     inkscape:cx="32"
     inkscape:cy="31.954545"
     inkscape:window-width="1512"
     inkscape:window-height="916"
     inkscape:window-x="0"
     inkscape:window-y="38"
     inkscape:window-maximized="0"
     inkscape:current-layer="g1" />
  <g
     inkscape:groupmode="layer"
     inkscape:label="Image"
     id="g1">
    <path
       style="fill:#000000"
       d="M 26.349303,63.20657 C 21.80081,62.381201 17.201591,60.3776 13.3965,57.563818 11.403466,56.090013 9.3554252,54.149714 11.074271,55.363755 c 0.370848,0.261935 1.594848,1.169833 2.72,2.017552 5.787095,4.360152 13.886913,6.555137 21.181432,5.739995 6.34258,-0.708766 11.639375,-2.970791 17.184297,-7.338648 l 1.12,-0.882249 -0.8,0.899929 c -1.336438,1.503373 -6.077848,4.470319 -8.96,5.606736 -5.416438,2.135671 -11.693083,2.793468 -17.170697,1.7995 z M 26.4,57.744274 c -2.50707,-0.624115 -6.178505,-2.025887 -6.44795,-2.461859 -0.239359,-0.387291 -0.260068,-0.393073 3.88795,1.085631 2.570962,0.916508 3.345403,1.041401 7.217205,1.163904 4.720671,0.149362 6.473566,-0.141988 10.487464,-1.74313 2.481253,-0.98977 4.04961,-1.942278 6.346369,-3.854331 0.90807,-0.755969 1.73607,-1.374489 1.84,-1.374489 1.237303,0 -3.270737,3.467052 -6.672782,5.131915 C 41.640215,56.385863 39.616,57.188789 38.56,57.476195 35.851029,58.21348 28.900346,58.366715 26.4,57.744274 Z M 13.270405,53.101533 C 7.6140361,52.376515 3.2112086,48.161133 3.2031261,43.462857 3.1986975,40.888582 3.5052183,40.669973 6.8284278,40.8773 12.424736,41.226442 19.308212,39.462958 23.766505,36.537918 c 0.663578,-0.435366 1.250854,-0.734502 1.305058,-0.664746 0.0542,0.06976 0.497656,0.663272 0.985448,1.318925 1.267342,1.703466 3.746049,2.83843 6.224891,2.850285 l 1.968022,0.0094 -1.002718,1.881293 c -0.551496,1.03471 -1.78097,2.741287 -2.732165,3.792392 -4.932979,5.451118 -11.234404,8.146428 -17.244636,7.376053 z M 28.215046,52.75525 c -0.937724,-0.182605 -1.609665,-0.427239 -1.493202,-0.54363 0.116464,-0.116391 2.179693,-0.220337 4.584954,-0.230991 3.86299,-0.01711 4.643223,-0.11585 6.687644,-0.846335 2.917837,-1.042563 4.647795,-2.05505 6.767334,-3.960699 1.111276,-0.999132 1.781536,-1.398283 1.992972,-1.186847 0.478786,0.478786 -2.757108,3.284103 -5.353382,4.641045 -1.210751,0.632799 -2.993366,1.38506 -3.961366,1.671691 -2.21408,0.655603 -6.987632,0.891444 -9.224954,0.455766 z M 52.650237,50.770946 C 50.107716,45.396498 45.349257,40.293286 40.503342,37.744002 39.507102,37.219912 39.063577,36.800871 39.165486,36.48 c 0.08385,-0.264 0.371593,-1.056 0.639436,-1.76 0.267843,-0.704 0.493307,-1.793864 0.501032,-2.42192 0.01823,-1.482346 -0.814277,-4.270434 -1.426964,-4.778918 C 38.017843,26.804474 38.370152,26.56 40.261229,26.56 c 5.536604,0 11.887832,2.550686 15.618419,6.272437 3.468476,3.460261 5.350737,8.534858 4.623974,12.466281 -0.552309,2.987718 -2.169348,5.513676 -4.189412,6.544236 -2.107264,1.075046 -2.735163,0.891335 -3.663973,-1.072008 z M 32.411753,47.129398 c 0.324868,-0.366922 1.319129,-0.79586 2.302584,-0.993366 2.177488,-0.437302 4.61748,-1.663136 6.254822,-3.142375 0.757949,-0.684761 1.459783,-1.069626 1.748511,-0.958831 0.751575,0.288407 0.585847,0.677181 -0.836419,1.962113 -1.910557,1.726073 -5.453455,3.313734 -7.961251,3.567636 -2.06809,0.209383 -2.076726,0.206891 -1.508247,-0.435177 z M 1.4797601,39.188223 C 1.3701426,38.902564 1.1331057,37.368102 0.95301137,35.778307 -0.4294501,23.574536 6.5289174,10.555777 17.360569,5.0805848 19.744784,3.8754098 22.489912,2.7956344 22.271602,3.1488666 22.177716,3.3007781 21.412197,3.6797356 20.57045,3.9909943 11.450991,7.3631596 3.8412743,16.428289 1.7976481,26.354229 1.2127575,29.195056 1.109992,35.176198 1.6015394,37.768117 1.9215572,39.455565 1.8595998,40.178069 1.4797601,39.188223 Z M 6.4964872,37.2 C 6.0554502,35.104091 6.2326941,28.795212 6.790916,26.72 c 0.8997578,-3.344885 1.8375888,-5.500152 3.509937,-8.066324 1.703342,-2.613731 5.179526,-6.247576 6.918005,-7.231768 1.353147,-0.766047 1.308561,-0.260576 -0.05916,0.670637 -1.674977,1.140413 -4.884943,4.527662 -6.288563,6.635876 C 7.9306428,23.144998 6.5273756,28.383467 6.8055896,33.905331 6.8991059,35.761399 7.0775113,37.532 7.202046,37.84 7.3329975,38.16387 7.2852194,38.4 7.0887366,38.4 6.9018817,38.4 6.6353695,37.86 6.4964872,37.2 Z M 62.213172,37.76 C 63.059001,33.941485 62.574097,27.528511 61.101163,23.053396 58.134589,14.040254 50.813751,6.5877148 41.794199,3.3990996 41.461008,3.2813092 41.268599,3.1047345 41.366622,3.0067113 c 0.09802,-0.098023 1.306634,0.3128152 2.685801,0.9129742 11.964741,5.2065809 19.463514,17.0513345 18.909853,29.8692255 -0.08431,1.951901 -0.327222,3.823901 -0.539801,4.16 -0.351921,0.556405 -0.370651,0.5395 -0.209303,-0.188911 z M 11.991255,37.52 c -0.130469,-0.308 -0.306723,-2.146739 -0.391674,-4.086087 -0.180739,-4.126077 0.282997,-6.442018 1.985127,-9.913913 1.008221,-2.056503 3.55135,-5.538293 4.076918,-5.581697 0.506563,-0.04183 -0.101172,1.366161 -1.086587,2.517397 -1.461157,1.707033 -3.029263,4.973711 -3.643602,7.590352 -0.521587,2.221583 -0.508001,8.215221 0.02147,9.473948 0.163689,0.389138 0.08911,0.56 -0.244439,0.56 -0.264,0 -0.586748,-0.252 -0.717218,-0.56 z m 17.908358,0.125574 c -1.34525,-0.609992 -3.286895,-2.959146 -3.533849,-4.275528 -0.694574,-3.702395 2.078948,-7.165027 5.765625,-7.198155 3.526393,-0.03169 6.0865,2.523639 6.053425,6.042123 -0.0184,1.956845 -0.718592,3.308981 -2.429727,4.691995 -0.968909,0.783114 -1.564349,0.994454 -3.04,1.078988 -1.102603,0.06316 -2.226413,-0.07232 -2.815474,-0.339423 z M 17.178599,36.357317 C 16.723296,35.170816 16.610712,31.985836 16.956706,30.08 c 0.39446,-2.172804 1.504531,-5.12 1.928464,-5.12 0.606849,0 0.593577,1.191498 -0.03167,2.843588 -0.680397,1.797802 -0.95919,5.302191 -0.613495,7.711549 0.123056,0.857654 0.03999,1.13836 -0.359735,1.21571 -0.285855,0.05532 -0.601604,-0.112774 -0.701666,-0.37353 z M 57.199274,30.72 C 57.092943,30.456 56.841537,29.232 56.640593,28 55.986149,23.987559 53.5721,19.060556 50.568884,15.607819 48.938482,13.733379 45.184647,11.022399 42.56,9.8238866 38.145895,7.8082409 38.409791,7.9607223 39.68,8.159798 c 0.616,0.096544 2.040659,0.6061859 3.165908,1.1325383 7.234081,3.3838507 12.644013,10.3067207 14.31429,18.3174157 0.452001,2.167805 0.477517,4.198819 0.03908,3.110248 z M 23.894151,29.499837 C 23.038826,28.554712 21.482532,24.909028 20.807325,22.268812 19.994547,19.090667 19.930262,14.017835 20.670832,11.49808 22.531178,5.168344 27.013223,0.97357116 32.213302,0.69541495 34.804112,0.55683054 36.375865,0.96443258 37.768129,2.1359455 38.92226,3.1070823 38.969154,3.9329322 37.946314,5.2739443 34.937686,9.2184591 32.64,16.416792 32.64,21.897892 v 1.974059 l -1.908441,0.394182 c -2.481329,0.51251 -4.390502,1.944082 -5.495698,4.120888 -0.783238,1.542671 -0.880038,1.622957 -1.34171,1.112816 z M 50.94402,26.599567 C 50.725426,26.464468 50.067301,25.353855 49.481522,24.131539 47.315468,19.611743 42.80312,15.569263 38.387751,14.192956 37.278615,13.847229 36.48433,13.416545 36.482736,13.16 c -0.0077,-1.230591 6.117278,1.578367 9.020588,4.136939 2.063582,1.818552 4.361594,5.087777 5.364084,7.631116 0.711877,1.806044 0.72405,2.07165 0.07661,1.671512 z M 43.805851,24.428246 C 43.523069,24.352614 42.539552,23.565756 41.620258,22.679674 40.109468,21.223467 36.609911,19.20089 35.6,19.200252 35.38,19.200114 35.2,18.912 35.2,18.56 c 0,-0.928457 0.853245,-0.811205 3.397006,0.46681 2.041916,1.025883 5.221,3.736242 5.924743,5.0512 0.302646,0.565499 0.227113,0.602452 -0.715898,0.350236 z"
       id="path1" />
  </g>
</svg>
