<?xml version="1.0" encoding="UTF-8" standalone="no"?>
<!-- Created with Inkscape (http://www.inkscape.org/) -->

<svg
   version="1.1"
   id="svg1"
   width="64"
   height="64"
   viewBox="0 0 64 64"
   sodipodi:docname="pumpLow.svg"
   inkscape:export-filename="../assets/pumpLow.png"
   inkscape:export-xdpi="150"
   inkscape:export-ydpi="150"
   inkscape:version="1.3.2 (091e20e, 2023-11-25)"
   xmlns:inkscape="http://www.inkscape.org/namespaces/inkscape"
   xmlns:sodipodi="http://sodipodi.sourceforge.net/DTD/sodipodi-0.dtd"
   xmlns="http://www.w3.org/2000/svg"
   xmlns:svg="http://www.w3.org/2000/svg">
  <defs
     id="defs1" />
  <sodipodi:namedview
     id="namedview1"
     pagecolor="#ffffff"
     bordercolor="#000000"
     borderopacity="0.25"
     inkscape:showpageshadow="2"
     inkscape:pageopacity="0.0"
     inkscape:pagecheckerboard="0"
     inkscape:deskcolor="#d1d1d1"
     inkscape:zoom="11"
     inkscape:cx="32"
     inkscape:cy="31.954545"
     inkscape:window-width="1512"
     inkscape:window-height="916"
     inkscape:window-x="0"
     inkscape:window-y="38"
     inkscape:window-maximized="0"
     inkscape:current-layer="g1" />
  <g
     inkscape:groupmode="layer"
     inkscape:label="Image"
     id="g1">
    <path
       style="fill:#000000"
       d="M 13.18833,53.092547 C 7.6145873,52.382371 3.2,48.166353 3.2,43.553495 c 0,-2.700996 0.3071233,-2.928415 3.6373646,-2.693396 5.0652324,0.357458 11.4577724,-1.15584 15.9395834,-3.773359 1.227913,-0.717139 2.268704,-1.255031 2.312869,-1.195315 1.536749,2.07787 2.116251,2.621034 3.539076,3.317157 1.242732,0.608012 2.20153,0.826858 3.653009,0.8338 l 1.968022,0.0094 -1.002718,1.881293 c -0.551496,1.03471 -1.78097,2.741287 -2.732165,3.792392 -4.960352,5.481367 -11.224112,8.144627 -17.326711,7.367067 z m 14.984413,-0.344031 c -1.530272,-0.296676 -1.677904,-0.389455 -1.188799,-0.747098 0.416022,-0.304202 0.902473,-0.328382 1.907257,-0.0948 1.916915,0.44562 6.084659,0.127291 8.708799,-0.665172 2.764773,-0.834933 4.93479,-2.065596 7.142944,-4.050916 1.123775,-1.010371 1.800368,-1.415216 2.011804,-1.20378 0.478786,0.478786 -2.757108,3.284103 -5.353382,4.641045 -1.210751,0.632799 -2.993366,1.38506 -3.961366,1.671691 -2.227981,0.659719 -6.99029,0.89047 -9.267257,0.449032 z M 52.324215,50.204871 C 51.696221,48.95355 50.758679,47.313875 50.240789,46.561147 47.923355,43.192872 43.850204,39.504681 40.503342,37.744002 39.507102,37.219912 39.063577,36.800871 39.165486,36.48 c 0.08385,-0.264 0.371593,-1.056 0.639436,-1.76 0.267843,-0.704 0.493307,-1.866348 0.501032,-2.582996 0.01632,-1.514309 -0.788061,-4.0876 -1.44928,-4.636363 C 38.018513,26.80503 38.384389,26.56 40.261229,26.56 c 5.51668,0 11.895681,2.554341 15.580056,6.238715 5.036351,5.036352 6.258129,11.918801 2.970162,16.731344 C 57.694046,51.165581 55.737048,52.48 54.419371,52.48 c -0.861339,0 -1.063545,-0.219575 -2.095156,-2.275129 z M 32.411753,47.129398 c 0.324868,-0.366922 1.319129,-0.79586 2.302584,-0.993366 2.177488,-0.437302 4.61748,-1.663136 6.254822,-3.142375 0.757949,-0.684761 1.459783,-1.069626 1.748511,-0.958831 0.751575,0.288407 0.585847,0.677181 -0.836419,1.962113 -1.910557,1.726073 -5.453455,3.313734 -7.961251,3.567636 -2.06809,0.209383 -2.076726,0.206891 -1.508247,-0.435177 z M 11.991255,37.52 c -0.130469,-0.308 -0.306723,-2.146739 -0.391674,-4.086087 -0.180922,-4.13025 0.284222,-6.448771 1.98894,-9.913913 1.008606,-2.05017 3.368489,-5.296005 4.029273,-5.541951 0.600658,-0.223567 -0.04619,1.313392 -1.042755,2.477651 -1.461157,1.707033 -3.029263,4.973711 -3.643602,7.590352 -0.521587,2.221583 -0.508001,8.215221 0.02147,9.473948 0.163689,0.389138 0.08911,0.56 -0.244439,0.56 -0.264,0 -0.586748,-0.252 -0.717218,-0.56 z m 17.908358,0.107988 c -1.334025,-0.580972 -3.285059,-2.931777 -3.533849,-4.257942 -0.694574,-3.702395 2.078948,-7.165027 5.765625,-7.198155 3.504763,-0.03149 6.086216,2.525368 6.054086,5.996412 -0.03163,3.417406 -2.573735,5.930903 -5.966307,5.899172 -0.736542,-0.0069 -1.780342,-0.204658 -2.319555,-0.439487 z M 17.178599,36.357317 C 16.723296,35.170816 16.610712,31.985836 16.956706,30.08 c 0.39446,-2.172804 1.504531,-5.12 1.928464,-5.12 0.606849,0 0.593577,1.191498 -0.03167,2.843588 -0.680397,1.797802 -0.95919,5.302191 -0.613495,7.711549 0.123056,0.857654 0.03999,1.13836 -0.359735,1.21571 -0.285855,0.05532 -0.601604,-0.112774 -0.701666,-0.37353 z m 6.715552,-6.85748 C 23.038826,28.554712 21.482532,24.909028 20.807325,22.268812 19.994547,19.090667 19.930262,14.017835 20.670832,11.49808 21.978111,7.0501255 24.834212,3.3686932 28.34287,1.6090427 31.451022,0.05025245 36.2279,0.42853028 38.059822,2.3785217 l 0.716253,0.7624157 -0.656771,1.3895313 C 37.758079,5.2947109 36.934009,6.856 36.288037,8 34.13808,11.807515 32.64,17.446336 32.64,21.731325 v 2.140626 l -1.908441,0.394182 c -2.481329,0.51251 -4.390502,1.944082 -5.495698,4.120888 -0.783238,1.542671 -0.880038,1.622957 -1.34171,1.112816 z m 27.074018,-2.885346 c -0.205313,-0.12689 -0.950932,-1.379061 -1.65693,-2.7826 -0.705999,-1.40354 -1.94709,-3.305694 -2.757981,-4.227009 -1.848275,-2.099966 -5.673221,-4.63506 -8.165507,-5.411926 C 37.278615,13.847229 36.48433,13.416545 36.482736,13.16 c -0.0077,-1.230591 6.117278,1.578367 9.020588,4.136939 2.063582,1.818552 4.361594,5.087777 5.364084,7.631116 0.705606,1.790135 0.722363,2.070608 0.100761,1.686436 z M 43.651006,24.445072 C 43.45906,24.365652 42.547543,23.573459 41.625413,22.684643 40.110451,21.224415 36.611255,19.200891 35.6,19.200252 35.38,19.200114 35.2,18.912 35.2,18.56 c 0,-0.928457 0.853245,-0.811205 3.397006,0.46681 3.460652,1.738672 8.048648,6.657343 5.054,5.418262 z"
       id="path1" />
  </g>
</svg>
